<?xml version="1.0" encoding="UTF-8" standalone="no"?>
<!DOCTYPE svg PUBLIC "-//W3C//DTD SVG 1.1//EN"
 "http://www.w3.org/Graphics/SVG/1.1/DTD/svg11.dtd">
<!-- Generated by graphviz version 2.38.0 (20140413.2041)
 -->
<!-- Title: controllers_diagram Pages: 1 -->
<svg width="642pt" height="630pt"
 viewBox="0.00 0.00 642.00 630.00" xmlns="http://www.w3.org/2000/svg" xmlns:xlink="http://www.w3.org/1999/xlink">
<g id="graph0" class="graph" transform="scale(1 1) rotate(0) translate(241.5 354)">
<title>controllers_diagram</title>
<polygon fill="none" stroke="none" points="-241.5,276 -241.5,-354 400.5,-354 400.5,276 -241.5,276"/>
<!-- _diagram_info -->
<g id="node1" class="node"><title>_diagram_info</title>
<text text-anchor="start" x="-196" y="140.4" font-family="Times,serif" font-size="13.00">Controllers diagram</text>
<text text-anchor="start" x="-196" y="154.4" font-family="Times,serif" font-size="13.00">Date: Jun 02 2017 &#45; 17:34</text>
<text text-anchor="start" x="-196" y="168.4" font-family="Times,serif" font-size="13.00">Migration version: 20170425143042</text>
<text text-anchor="start" x="-196" y="182.4" font-family="Times,serif" font-size="13.00">Generated by RailRoady 1.5.2</text>
<text text-anchor="start" x="-196" y="196.4" font-family="Times,serif" font-size="13.00">http://railroady.prestonlee.com</text>
</g>
<!-- UsersController -->
<g id="node2" class="node"><title>UsersController</title>
<path fill="none" stroke="black" d="M-225.5,-0.5C-225.5,-0.5 -146.5,-0.5 -146.5,-0.5 -140.5,-0.5 -134.5,-6.5 -134.5,-12.5 -134.5,-12.5 -134.5,-111.5 -134.5,-111.5 -134.5,-117.5 -140.5,-123.5 -146.5,-123.5 -146.5,-123.5 -225.5,-123.5 -225.5,-123.5 -231.5,-123.5 -237.5,-117.5 -237.5,-111.5 -237.5,-111.5 -237.5,-12.5 -237.5,-12.5 -237.5,-6.5 -231.5,-0.5 -225.5,-0.5"/>
<text text-anchor="middle" x="-186" y="-108.3" font-family="Times,serif" font-size="14.00">UsersController</text>
<polyline fill="none" stroke="black" points="-237.5,-100.5 -134.5,-100.5 "/>
<text text-anchor="start" x="-229.5" y="-85.3" font-family="Times,serif" font-size="14.00">index</text>
<text text-anchor="start" x="-229.5" y="-70.3" font-family="Times,serif" font-size="14.00">show</text>
<text text-anchor="start" x="-229.5" y="-55.3" font-family="Times,serif" font-size="14.00">update</text>
<polyline fill="none" stroke="black" points="-237.5,-47.5 -134.5,-47.5 "/>
<polyline fill="none" stroke="black" points="-237.5,-23.5 -134.5,-23.5 "/>
<text text-anchor="start" x="-229.5" y="-8.3" font-family="Times,serif" font-size="14.00">_layout</text>
</g>
<!-- ApplicationController -->
<g id="node3" class="node"><title>ApplicationController</title>
<path fill="none" stroke="black" d="M63,237.5C63,237.5 233,237.5 233,237.5 239,237.5 245,231.5 245,225.5 245,225.5 245,156.5 245,156.5 245,150.5 239,144.5 233,144.5 233,144.5 63,144.5 63,144.5 57,144.5 51,150.5 51,156.5 51,156.5 51,225.5 51,225.5 51,231.5 57,237.5 63,237.5"/>
<text text-anchor="middle" x="148" y="159.7" font-family="Times,serif" font-size="14.00">ApplicationController</text>
<polyline fill="none" stroke="black" points="51,167.5 245,167.5 "/>
<text text-anchor="start" x="59" y="182.7" font-family="Times,serif" font-size="14.00">configure_permitted_parameters</text>
<polyline fill="none" stroke="black" points="51,190.5 245,190.5 "/>
<polyline fill="none" stroke="black" points="51,214.5 245,214.5 "/>
<text text-anchor="start" x="59" y="229.7" font-family="Times,serif" font-size="14.00">_layout</text>
</g>
<!-- NotesController -->
<g id="node4" class="node"><title>NotesController</title>
<path fill="none" stroke="black" d="M-141,-153.5C-141,-153.5 -61,-153.5 -61,-153.5 -55,-153.5 -49,-159.5 -49,-165.5 -49,-165.5 -49,-294.5 -49,-294.5 -49,-300.5 -55,-306.5 -61,-306.5 -61,-306.5 -141,-306.5 -141,-306.5 -147,-306.5 -153,-300.5 -153,-294.5 -153,-294.5 -153,-165.5 -153,-165.5 -153,-159.5 -147,-153.5 -141,-153.5"/>
<text text-anchor="middle" x="-101" y="-291.3" font-family="Times,serif" font-size="14.00">NotesController</text>
<polyline fill="none" stroke="black" points="-153,-283.5 -49,-283.5 "/>
<text text-anchor="start" x="-145" y="-268.3" font-family="Times,serif" font-size="14.00">create</text>
<text text-anchor="start" x="-145" y="-253.3" font-family="Times,serif" font-size="14.00">destroy</text>
<text text-anchor="start" x="-145" y="-238.3" font-family="Times,serif" font-size="14.00">dokaa</text>
<polyline fill="none" stroke="black" points="-153,-230.5 -49,-230.5 "/>
<polyline fill="none" stroke="black" points="-153,-206.5 -49,-206.5 "/>
<text text-anchor="start" x="-145" y="-191.3" font-family="Times,serif" font-size="14.00">_layout</text>
<text text-anchor="start" x="-145" y="-176.3" font-family="Times,serif" font-size="14.00">note_params</text>
<text text-anchor="start" x="-145" y="-161.3" font-family="Times,serif" font-size="14.00">set_note</text>
</g>
<!-- ParticipationRequestsController -->
<g id="node5" class="node"><title>ParticipationRequestsController</title>
<path fill="none" stroke="black" d="M-90,85C-90,85 76,85 76,85 82,85 88,79 88,73 88,73 88,-71 88,-71 88,-77 82,-83 76,-83 76,-83 -90,-83 -90,-83 -96,-83 -102,-77 -102,-71 -102,-71 -102,73 -102,73 -102,79 -96,85 -90,85"/>
<text text-anchor="middle" x="-7" y="-67.8" font-family="Times,serif" font-size="14.00">ParticipationRequestsController</text>
<polyline fill="none" stroke="black" points="-102,-60 88,-60 "/>
<text text-anchor="start" x="-94" y="-44.8" font-family="Times,serif" font-size="14.00">accept</text>
<text text-anchor="start" x="-94" y="-29.8" font-family="Times,serif" font-size="14.00">accept_bulk</text>
<text text-anchor="start" x="-94" y="-14.8" font-family="Times,serif" font-size="14.00">create</text>
<text text-anchor="start" x="-94" y="0.2" font-family="Times,serif" font-size="14.00">destroy</text>
<polyline fill="none" stroke="black" points="-102,8 88,8 "/>
<polyline fill="none" stroke="black" points="-102,32 88,32 "/>
<text text-anchor="start" x="-94" y="47.2" font-family="Times,serif" font-size="14.00">_layout</text>
<text text-anchor="start" x="-94" y="62.2" font-family="Times,serif" font-size="14.00">participation_request_params</text>
<text text-anchor="start" x="-94" y="77.2" font-family="Times,serif" font-size="14.00">set_participation_request</text>
</g>
<!-- OverviewController -->
<g id="node6" class="node"><title>OverviewController</title>
<path fill="none" stroke="black" d="M283.5,271.5C283.5,271.5 384.5,271.5 384.5,271.5 390.5,271.5 396.5,265.5 396.5,259.5 396.5,259.5 396.5,190.5 396.5,190.5 396.5,184.5 390.5,178.5 384.5,178.5 384.5,178.5 283.5,178.5 283.5,178.5 277.5,178.5 271.5,184.5 271.5,190.5 271.5,190.5 271.5,259.5 271.5,259.5 271.5,265.5 277.5,271.5 283.5,271.5"/>
<text text-anchor="middle" x="334" y="193.7" font-family="Times,serif" font-size="14.00">OverviewController</text>
<polyline fill="none" stroke="black" points="271.5,201.5 396.5,201.5 "/>
<text text-anchor="start" x="279.5" y="216.7" font-family="Times,serif" font-size="14.00">index</text>
<polyline fill="none" stroke="black" points="271.5,224.5 396.5,224.5 "/>
<polyline fill="none" stroke="black" points="271.5,248.5 396.5,248.5 "/>
<text text-anchor="start" x="279.5" y="263.7" font-family="Times,serif" font-size="14.00">_layout</text>
</g>
<!-- EventsController -->
<g id="node7" class="node"><title>EventsController</title>
<path fill="none" stroke="black" d="M-4.5,-119.5C-4.5,-119.5 80.5,-119.5 80.5,-119.5 86.5,-119.5 92.5,-125.5 92.5,-131.5 92.5,-131.5 92.5,-320.5 92.5,-320.5 92.5,-326.5 86.5,-332.5 80.5,-332.5 80.5,-332.5 -4.5,-332.5 -4.5,-332.5 -10.5,-332.5 -16.5,-326.5 -16.5,-320.5 -16.5,-320.5 -16.5,-131.5 -16.5,-131.5 -16.5,-125.5 -10.5,-119.5 -4.5,-119.5"/>
<text text-anchor="middle" x="38" y="-317.3" font-family="Times,serif" font-size="14.00">EventsController</text>
<polyline fill="none" stroke="black" points="-16.5,-309.5 92.5,-309.5 "/>
<text text-anchor="start" x="-8.5" y="-294.3" font-family="Times,serif" font-size="14.00">create</text>
<text text-anchor="start" x="-8.5" y="-279.3" font-family="Times,serif" font-size="14.00">destroy</text>
<text text-anchor="start" x="-8.5" y="-264.3" font-family="Times,serif" font-size="14.00">edit</text>
<text text-anchor="start" x="-8.5" y="-249.3" font-family="Times,serif" font-size="14.00">index</text>
<text text-anchor="start" x="-8.5" y="-234.3" font-family="Times,serif" font-size="14.00">new</text>
<text text-anchor="start" x="-8.5" y="-219.3" font-family="Times,serif" font-size="14.00">show</text>
<text text-anchor="start" x="-8.5" y="-204.3" font-family="Times,serif" font-size="14.00">update</text>
<polyline fill="none" stroke="black" points="-16.5,-196.5 92.5,-196.5 "/>
<polyline fill="none" stroke="black" points="-16.5,-172.5 92.5,-172.5 "/>
<text text-anchor="start" x="-8.5" y="-157.3" font-family="Times,serif" font-size="14.00">_layout</text>
<text text-anchor="start" x="-8.5" y="-142.3" font-family="Times,serif" font-size="14.00">event_params</text>
<text text-anchor="start" x="-8.5" y="-127.3" font-family="Times,serif" font-size="14.00">set_event</text>
</g>
<!-- ParticipationsController -->
<g id="node8" class="node"><title>ParticipationsController</title>
<path fill="none" stroke="black" d="M131,118.5C131,118.5 253,118.5 253,118.5 259,118.5 265,112.5 265,106.5 265,106.5 265,-82.5 265,-82.5 265,-88.5 259,-94.5 253,-94.5 253,-94.5 131,-94.5 131,-94.5 125,-94.5 119,-88.5 119,-82.5 119,-82.5 119,106.5 119,106.5 119,112.5 125,118.5 131,118.5"/>
<text text-anchor="middle" x="192" y="-79.3" font-family="Times,serif" font-size="14.00">ParticipationsController</text>
<polyline fill="none" stroke="black" points="119,-71.5 265,-71.5 "/>
<text text-anchor="start" x="127" y="-56.3" font-family="Times,serif" font-size="14.00">create</text>
<text text-anchor="start" x="127" y="-41.3" font-family="Times,serif" font-size="14.00">destroy</text>
<text text-anchor="start" x="127" y="-26.3" font-family="Times,serif" font-size="14.00">edit</text>
<text text-anchor="start" x="127" y="-11.3" font-family="Times,serif" font-size="14.00">index</text>
<text text-anchor="start" x="127" y="3.7" font-family="Times,serif" font-size="14.00">new</text>
<text text-anchor="start" x="127" y="18.7" font-family="Times,serif" font-size="14.00">show</text>
<text text-anchor="start" x="127" y="33.7" font-family="Times,serif" font-size="14.00">update</text>
<polyline fill="none" stroke="black" points="119,41.5 265,41.5 "/>
<polyline fill="none" stroke="black" points="119,65.5 265,65.5 "/>
<text text-anchor="start" x="127" y="80.7" font-family="Times,serif" font-size="14.00">_layout</text>
<text text-anchor="start" x="127" y="95.7" font-family="Times,serif" font-size="14.00">participation_params</text>
<text text-anchor="start" x="127" y="110.7" font-family="Times,serif" font-size="14.00">set_participation</text>
</g>
<!-- YearsController -->
<g id="node9" class="node"><title>YearsController</title>
<path fill="none" stroke="black" d="M148,-136.5C148,-136.5 228,-136.5 228,-136.5 234,-136.5 240,-142.5 240,-148.5 240,-148.5 240,-337.5 240,-337.5 240,-343.5 234,-349.5 228,-349.5 228,-349.5 148,-349.5 148,-349.5 142,-349.5 136,-343.5 136,-337.5 136,-337.5 136,-148.5 136,-148.5 136,-142.5 142,-136.5 148,-136.5"/>
<text text-anchor="middle" x="188" y="-334.3" font-family="Times,serif" font-size="14.00">YearsController</text>
<polyline fill="none" stroke="black" points="136,-326.5 240,-326.5 "/>
<text text-anchor="start" x="144" y="-311.3" font-family="Times,serif" font-size="14.00">create</text>
<text text-anchor="start" x="144" y="-296.3" font-family="Times,serif" font-size="14.00">destroy</text>
<text text-anchor="start" x="144" y="-281.3" font-family="Times,serif" font-size="14.00">edit</text>
<text text-anchor="start" x="144" y="-266.3" font-family="Times,serif" font-size="14.00">index</text>
<text text-anchor="start" x="144" y="-251.3" font-family="Times,serif" font-size="14.00">new</text>
<text text-anchor="start" x="144" y="-236.3" font-family="Times,serif" font-size="14.00">show</text>
<text text-anchor="start" x="144" y="-221.3" font-family="Times,serif" font-size="14.00">update</text>
<polyline fill="none" stroke="black" points="136,-213.5 240,-213.5 "/>
<polyline fill="none" stroke="black" points="136,-189.5 240,-189.5 "/>
<text text-anchor="start" x="144" y="-174.3" font-family="Times,serif" font-size="14.00">_layout</text>
<text text-anchor="start" x="144" y="-159.3" font-family="Times,serif" font-size="14.00">set_year</text>
<text text-anchor="start" x="144" y="-144.3" font-family="Times,serif" font-size="14.00">year_params</text>
</g>
<!-- CallbacksController -->
<g id="node10" class="node"><title>CallbacksController</title>
<path fill="none" stroke="black" d="M283.5,-136.5C283.5,-136.5 384.5,-136.5 384.5,-136.5 390.5,-136.5 396.5,-142.5 396.5,-148.5 396.5,-148.5 396.5,-217.5 396.5,-217.5 396.5,-223.5 390.5,-229.5 384.5,-229.5 384.5,-229.5 283.5,-229.5 283.5,-229.5 277.5,-229.5 271.5,-223.5 271.5,-217.5 271.5,-217.5 271.5,-148.5 271.5,-148.5 271.5,-142.5 277.5,-136.5 283.5,-136.5"/>
<text text-anchor="middle" x="334" y="-214.3" font-family="Times,serif" font-size="14.00">CallbacksController</text>
<polyline fill="none" stroke="black" points="271.5,-206.5 396.5,-206.5 "/>
<text text-anchor="start" x="279.5" y="-191.3" font-family="Times,serif" font-size="14.00">facebook</text>
<polyline fill="none" stroke="black" points="271.5,-183.5 396.5,-183.5 "/>
<polyline fill="none" stroke="black" points="271.5,-159.5 396.5,-159.5 "/>
<text text-anchor="start" x="279.5" y="-144.3" font-family="Times,serif" font-size="14.00">_layout</text>
</g>
</g>
</svg>
