<?xml version="1.0" encoding="UTF-8" standalone="no"?>
<!DOCTYPE svg PUBLIC "-//W3C//DTD SVG 1.1//EN"
 "http://www.w3.org/Graphics/SVG/1.1/DTD/svg11.dtd">
<!-- Generated by graphviz version 2.38.0 (20140413.2041)
 -->
<!-- Title: models_diagram Pages: 1 -->
<svg width="625pt" height="392pt"
 viewBox="0.00 0.00 624.50 392.00" xmlns="http://www.w3.org/2000/svg" xmlns:xlink="http://www.w3.org/1999/xlink">
<g id="graph0" class="graph" transform="scale(1 1) rotate(0) translate(4 388)">
<title>models_diagram</title>
<polygon fill="none" stroke="none" points="-4,4 -4,-388 620.5,-388 620.5,4 -4,4"/>
<!-- _diagram_info -->
<g id="node1" class="node"><title>_diagram_info</title>
<text text-anchor="start" x="8" y="-369.6" font-family="Times,serif" font-size="13.00">Models diagram</text>
<text text-anchor="start" x="8" y="-355.6" font-family="Times,serif" font-size="13.00">Date: Jun 02 2017 &#45; 17:34</text>
<text text-anchor="start" x="8" y="-341.6" font-family="Times,serif" font-size="13.00">Migration version: 20170425143042</text>
<text text-anchor="start" x="8" y="-327.6" font-family="Times,serif" font-size="13.00">Generated by RailRoady 1.5.2</text>
<text text-anchor="start" x="8" y="-313.6" font-family="Times,serif" font-size="13.00">http://railroady.prestonlee.com</text>
</g>
<!-- Role -->
<g id="node2" class="node"><title>Role</title>
<ellipse fill="none" stroke="black" cx="343" cy="-345" rx="27.0966" ry="18"/>
<text text-anchor="middle" x="343" y="-341.3" font-family="Times,serif" font-size="14.00">Role</text>
</g>
<!-- User -->
<g id="node7" class="node"><title>User</title>
<ellipse fill="none" stroke="black" cx="343" cy="-251" rx="27.0966" ry="18"/>
<text text-anchor="middle" x="343" y="-247.3" font-family="Times,serif" font-size="14.00">User</text>
</g>
<!-- Role&#45;&gt;User -->
<g id="edge1" class="edge"><title>Role&#45;&gt;User</title>
<path fill="none" stroke="#bc6d24" d="M343,-316.691C343,-304.915 343,-291.17 343,-279.386"/>
<polygon fill="#bc6d24" stroke="#bc6d24" points="343,-316.696 338.5,-326.695 343,-321.696 343,-326.696 343,-326.696 343,-326.696 343,-321.696 347.5,-326.696 343,-316.696 343,-316.696"/>
<polygon fill="#bc6d24" stroke="#bc6d24" points="343,-279.227 347.5,-269.227 343,-274.227 343,-269.227 343,-269.227 343,-269.227 343,-274.227 338.5,-269.227 343,-279.227 343,-279.227"/>
</g>
<!-- ApplicationRecord -->
<g id="node3" class="node"><title>ApplicationRecord</title>
<ellipse fill="none" stroke="black" cx="466" cy="-345" rx="77.1866" ry="18"/>
<text text-anchor="middle" x="466" y="-341.3" font-family="Times,serif" font-size="14.00">ApplicationRecord</text>
</g>
<!-- Year -->
<g id="node4" class="node"><title>Year</title>
<ellipse fill="none" stroke="black" cx="260" cy="-345" rx="27.8951" ry="18"/>
<text text-anchor="middle" x="260" y="-341.3" font-family="Times,serif" font-size="14.00">Year</text>
</g>
<!-- Event -->
<g id="node6" class="node"><title>Event</title>
<ellipse fill="none" stroke="black" cx="307" cy="-91" rx="31.3957" ry="18"/>
<text text-anchor="middle" x="307" y="-87.3" font-family="Times,serif" font-size="14.00">Event</text>
</g>
<!-- Year&#45;&gt;Event -->
<g id="edge3" class="edge"><title>Year&#45;&gt;Event</title>
<path fill="none" stroke="#bea8b9" d="M252.502,-319.138C242.219,-280.411 227.621,-204.101 252,-146 257.694,-132.431 268.645,-120.555 279.286,-111.421"/>
<ellipse fill="none" stroke="#bea8b9" cx="253.678" cy="-323.399" rx="4.00001" ry="4.00001"/>
<polygon fill="#bea8b9" stroke="#bea8b9" points="279.483,-111.262 290.093,-108.493 283.377,-108.126 287.27,-104.989 287.27,-104.989 287.27,-104.989 283.377,-108.126 284.447,-101.484 279.483,-111.262 279.483,-111.262"/>
</g>
<!-- Year&#45;&gt;User -->
<g id="edge2" class="edge"><title>Year&#45;&gt;User</title>
<path fill="none" stroke="#83b3ba" d="M279.099,-322.83C292.12,-308.397 309.342,-289.307 322.626,-274.583"/>
<ellipse fill="none" stroke="#83b3ba" cx="276.385" cy="-325.838" rx="4.00002" ry="4.00002"/>
<polygon fill="#83b3ba" stroke="#83b3ba" points="322.851,-274.334 332.89,-269.924 326.2,-270.622 329.549,-266.909 329.549,-266.909 329.549,-266.909 326.2,-270.622 326.208,-263.895 322.851,-274.334 322.851,-274.334"/>
</g>
<!-- Note -->
<g id="node5" class="node"><title>Note</title>
<ellipse fill="none" stroke="black" cx="491" cy="-164" rx="27.8951" ry="18"/>
<text text-anchor="middle" x="491" y="-160.3" font-family="Times,serif" font-size="14.00">Note</text>
</g>
<!-- Participation -->
<g id="node10" class="node"><title>Participation</title>
<ellipse fill="none" stroke="black" cx="366" cy="-18" rx="55.7903" ry="18"/>
<text text-anchor="middle" x="366" y="-14.3" font-family="Times,serif" font-size="14.00">Participation</text>
</g>
<!-- Event&#45;&gt;Participation -->
<g id="edge4" class="edge"><title>Event&#45;&gt;Participation</title>
<path fill="none" stroke="#92f28c" d="M325.258,-68.0288C331.686,-60.2926 338.953,-51.5484 345.55,-43.6089"/>
<ellipse fill="none" stroke="#92f28c" cx="322.651" cy="-71.1664" rx="4.00002" ry="4.00002"/>
<polygon fill="#92f28c" stroke="#92f28c" points="345.729,-43.3935 355.582,-38.5785 348.925,-39.548 352.121,-35.7024 352.121,-35.7024 352.121,-35.7024 348.925,-39.548 348.66,-32.8264 345.729,-43.3935 345.729,-43.3935"/>
</g>
<!-- User&#45;&gt;Note -->
<g id="edge8" class="edge"><title>User&#45;&gt;Note</title>
<path fill="none" stroke="#edf86a" d="M378.181,-247.109C404.303,-243.361 439.5,-234.756 464,-215 471.588,-208.881 477.341,-200.036 481.545,-191.482"/>
<ellipse fill="none" stroke="#edf86a" cx="374.01" cy="-247.649" rx="4.00001" ry="4.00001"/>
<polygon fill="#edf86a" stroke="#edf86a" points="481.639,-191.269 489.771,-183.912 483.644,-186.688 485.649,-182.108 485.649,-182.108 485.649,-182.108 483.644,-186.688 481.526,-180.303 481.639,-191.269 481.639,-191.269"/>
</g>
<!-- User&#45;&gt;Note -->
<g id="edge9" class="edge"><title>User&#45;&gt;Note</title>
<path fill="none" stroke="#adea9a" d="M377.866,-245.826C414.895,-240.646 469.993,-230.549 484,-215 489.528,-208.864 491.935,-200.472 492.769,-192.316"/>
<ellipse fill="none" stroke="#adea9a" cx="373.764" cy="-246.381" rx="4.00001" ry="4.00001"/>
<polygon fill="#adea9a" stroke="#adea9a" points="492.77,-192.292 497.6,-182.447 492.936,-187.295 493.102,-182.298 493.102,-182.298 493.102,-182.298 492.936,-187.295 488.605,-182.148 492.77,-192.292 492.77,-192.292"/>
<text text-anchor="middle" x="536" y="-203.8" font-family="Times,serif" font-size="14.00">submitted_notes</text>
</g>
<!-- ParticipationRequest -->
<g id="node9" class="node"><title>ParticipationRequest</title>
<ellipse fill="none" stroke="black" cx="345" cy="-164" rx="83.6854" ry="18"/>
<text text-anchor="middle" x="345" y="-160.3" font-family="Times,serif" font-size="14.00">ParticipationRequest</text>
</g>
<!-- User&#45;&gt;ParticipationRequest -->
<g id="edge5" class="edge"><title>User&#45;&gt;ParticipationRequest</title>
<path fill="none" stroke="#9de2f0" d="M322.803,-229.33C316.657,-220.561 312.374,-210.058 316,-200 317.279,-196.451 319.093,-193.006 321.195,-189.751"/>
<ellipse fill="none" stroke="#9de2f0" cx="325.297" cy="-232.513" rx="4.00002" ry="4.00002"/>
<polygon fill="#9de2f0" stroke="#9de2f0" points="321.277,-189.641 330.873,-184.333 324.274,-185.639 327.271,-181.636 327.271,-181.636 327.271,-181.636 324.274,-185.639 323.668,-178.939 321.277,-189.641 321.277,-189.641"/>
</g>
<!-- User&#45;&gt;ParticipationRequest -->
<g id="edge6" class="edge"><title>User&#45;&gt;ParticipationRequest</title>
<path fill="none" stroke="#c49637" d="M336.876,-224.97C335.628,-216.995 334.971,-208.132 336,-200 336.324,-197.44 336.776,-194.8 337.307,-192.17"/>
<ellipse fill="none" stroke="#c49637" cx="337.616" cy="-228.958" rx="4.00001" ry="4.00001"/>
<polygon fill="#c49637" stroke="#c49637" points="337.344,-192.013 344.018,-183.312 338.491,-187.146 339.638,-182.28 339.638,-182.28 339.638,-182.28 338.491,-187.146 335.259,-181.247 337.344,-192.013 337.344,-192.013"/>
<text text-anchor="middle" x="400" y="-203.8" font-family="Times,serif" font-size="14.00">accepted_participations</text>
</g>
<!-- User&#45;&gt;Participation -->
<g id="edge7" class="edge"><title>User&#45;&gt;Participation</title>
<path fill="none" stroke="#c139aa" d="M380.434,-250.284C441.652,-249.86 558.996,-245.035 585,-215 649.266,-140.77 493.181,-67.3913 411.697,-35.5247"/>
<polygon fill="#c139aa" stroke="#c139aa" points="380.401,-250.284 370.386,-245.817 375.401,-250.3 370.401,-250.317 370.401,-250.317 370.401,-250.317 375.401,-250.3 370.416,-254.817 380.401,-250.284 380.401,-250.284"/>
<polygon fill="#c139aa" stroke="#c139aa" points="411.482,-35.4417 403.768,-27.6478 406.816,-33.6444 402.15,-31.8471 402.15,-31.8471 402.15,-31.8471 406.816,-33.6444 400.532,-36.0463 411.482,-35.4417 411.482,-35.4417"/>
</g>
<!-- Ability -->
<g id="node8" class="node"><title>Ability</title>
<polygon fill="none" stroke="black" points="616.5,-363 561.5,-363 561.5,-327 616.5,-327 616.5,-363"/>
<text text-anchor="middle" x="589" y="-341.3" font-family="Times,serif" font-size="14.00">Ability</text>
</g>
<!-- ParticipationRequest&#45;&gt;Event -->
<g id="edge10" class="edge"><title>ParticipationRequest&#45;&gt;Event</title>
<path fill="none" stroke="#3a6860" d="M331.911,-138.545C327.935,-131.116 323.575,-122.97 319.63,-115.598"/>
<ellipse fill="none" stroke="#3a6860" cx="333.914" cy="-142.286" rx="4.00002" ry="4.00002"/>
<ellipse fill="#3a6860" stroke="#3a6860" cx="317.74" cy="-112.067" rx="4.00002" ry="4.00002"/>
</g>
<!-- Participation&#45;&gt;ParticipationRequest -->
<g id="edge11" class="edge"><title>Participation&#45;&gt;ParticipationRequest</title>
<path fill="none" stroke="#7f9af2" d="M362.326,-44.1954C358.58,-69.8808 352.789,-109.591 348.947,-135.933"/>
<ellipse fill="none" stroke="#7f9af2" cx="362.935" cy="-40.0201" rx="4.00001" ry="4.00001"/>
<polygon fill="#7f9af2" stroke="#7f9af2" points="348.935,-136.02 343.039,-145.266 348.213,-140.968 347.491,-145.916 347.491,-145.916 347.491,-145.916 348.213,-140.968 351.944,-146.565 348.935,-136.02 348.935,-136.02"/>
</g>
</g>
</svg>
