<?xml version="1.0" encoding="UTF-8" standalone="no"?>
<!DOCTYPE svg PUBLIC "-//W3C//DTD SVG 1.1//EN"
 "http://www.w3.org/Graphics/SVG/1.1/DTD/svg11.dtd">
<!-- Generated by graphviz version 2.38.0 (20140413.2041)
 -->
<!-- Title: models_diagram Pages: 1 -->
<svg width="805pt" height="1170pt"
 viewBox="0.00 0.00 804.50 1170.00" xmlns="http://www.w3.org/2000/svg" xmlns:xlink="http://www.w3.org/1999/xlink">
<g id="graph0" class="graph" transform="scale(1 1) rotate(0) translate(4 1166)">
<title>models_diagram</title>
<polygon fill="none" stroke="none" points="-4,4 -4,-1166 800.5,-1166 800.5,4 -4,4"/>
<!-- _diagram_info -->
<g id="node1" class="node"><title>_diagram_info</title>
<text text-anchor="start" x="8" y="-1125.6" font-family="Times,serif" font-size="13.00">Models diagram</text>
<text text-anchor="start" x="8" y="-1111.6" font-family="Times,serif" font-size="13.00">Date: Jun 02 2017 &#45; 17:33</text>
<text text-anchor="start" x="8" y="-1097.6" font-family="Times,serif" font-size="13.00">Migration version: 20170425143042</text>
<text text-anchor="start" x="8" y="-1083.6" font-family="Times,serif" font-size="13.00">Generated by RailRoady 1.5.2</text>
<text text-anchor="start" x="8" y="-1069.6" font-family="Times,serif" font-size="13.00">http://railroady.prestonlee.com</text>
</g>
<!-- Role -->
<g id="node2" class="node"><title>Role</title>
<path fill="none" stroke="black" d="M423,-1040.5C423,-1040.5 539,-1040.5 539,-1040.5 545,-1040.5 551,-1046.5 551,-1052.5 551,-1052.5 551,-1149.5 551,-1149.5 551,-1155.5 545,-1161.5 539,-1161.5 539,-1161.5 423,-1161.5 423,-1161.5 417,-1161.5 411,-1155.5 411,-1149.5 411,-1149.5 411,-1052.5 411,-1052.5 411,-1046.5 417,-1040.5 423,-1040.5"/>
<text text-anchor="middle" x="481" y="-1146.3" font-family="Times,serif" font-size="14.00">Role</text>
<polyline fill="none" stroke="black" points="411,-1138.5 551,-1138.5 "/>
<text text-anchor="start" x="419" y="-1123.3" font-family="Times,serif" font-size="14.00">id :INTEGER</text>
<text text-anchor="start" x="419" y="-1108.3" font-family="Times,serif" font-size="14.00">name :varchar</text>
<text text-anchor="start" x="419" y="-1093.3" font-family="Times,serif" font-size="14.00">resource_type :varchar</text>
<text text-anchor="start" x="419" y="-1078.3" font-family="Times,serif" font-size="14.00">resource_id :integer</text>
<text text-anchor="start" x="419" y="-1063.3" font-family="Times,serif" font-size="14.00">created_at :datetime</text>
<text text-anchor="start" x="419" y="-1048.3" font-family="Times,serif" font-size="14.00">updated_at :datetime</text>
</g>
<!-- User -->
<g id="node7" class="node"><title>User</title>
<path fill="none" stroke="black" d="M393,-551.5C393,-551.5 569,-551.5 569,-551.5 575,-551.5 581,-557.5 581,-563.5 581,-563.5 581,-990.5 581,-990.5 581,-996.5 575,-1002.5 569,-1002.5 569,-1002.5 393,-1002.5 393,-1002.5 387,-1002.5 381,-996.5 381,-990.5 381,-990.5 381,-563.5 381,-563.5 381,-557.5 387,-551.5 393,-551.5"/>
<text text-anchor="middle" x="481" y="-987.3" font-family="Times,serif" font-size="14.00">User</text>
<polyline fill="none" stroke="black" points="381,-979.5 581,-979.5 "/>
<text text-anchor="start" x="389" y="-964.3" font-family="Times,serif" font-size="14.00">id :INTEGER</text>
<text text-anchor="start" x="389" y="-949.3" font-family="Times,serif" font-size="14.00">username :varchar</text>
<text text-anchor="start" x="389" y="-934.3" font-family="Times,serif" font-size="14.00">first_name :varchar</text>
<text text-anchor="start" x="389" y="-919.3" font-family="Times,serif" font-size="14.00">last_name :varchar</text>
<text text-anchor="start" x="389" y="-904.3" font-family="Times,serif" font-size="14.00">irc_nick :varchar</text>
<text text-anchor="start" x="389" y="-889.3" font-family="Times,serif" font-size="14.00">email :varchar</text>
<text text-anchor="start" x="389" y="-874.3" font-family="Times,serif" font-size="14.00">encrypted_password :varchar</text>
<text text-anchor="start" x="389" y="-859.3" font-family="Times,serif" font-size="14.00">reset_password_token :varchar</text>
<text text-anchor="start" x="389" y="-844.3" font-family="Times,serif" font-size="14.00">reset_password_sent_at :datetime</text>
<text text-anchor="start" x="389" y="-829.3" font-family="Times,serif" font-size="14.00">remember_created_at :datetime</text>
<text text-anchor="start" x="389" y="-814.3" font-family="Times,serif" font-size="14.00">sign_in_count :integer</text>
<text text-anchor="start" x="389" y="-799.3" font-family="Times,serif" font-size="14.00">current_sign_in_at :datetime</text>
<text text-anchor="start" x="389" y="-784.3" font-family="Times,serif" font-size="14.00">last_sign_in_at :datetime</text>
<text text-anchor="start" x="389" y="-769.3" font-family="Times,serif" font-size="14.00">current_sign_in_ip :varchar</text>
<text text-anchor="start" x="389" y="-754.3" font-family="Times,serif" font-size="14.00">last_sign_in_ip :varchar</text>
<text text-anchor="start" x="389" y="-739.3" font-family="Times,serif" font-size="14.00">confirmation_token :varchar</text>
<text text-anchor="start" x="389" y="-724.3" font-family="Times,serif" font-size="14.00">confirmed_at :datetime</text>
<text text-anchor="start" x="389" y="-709.3" font-family="Times,serif" font-size="14.00">confirmation_sent_at :datetime</text>
<text text-anchor="start" x="389" y="-694.3" font-family="Times,serif" font-size="14.00">unconfirmed_email :varchar</text>
<text text-anchor="start" x="389" y="-679.3" font-family="Times,serif" font-size="14.00">failed_attempts :integer</text>
<text text-anchor="start" x="389" y="-664.3" font-family="Times,serif" font-size="14.00">unlock_token :varchar</text>
<text text-anchor="start" x="389" y="-649.3" font-family="Times,serif" font-size="14.00">locked_at :datetime</text>
<text text-anchor="start" x="389" y="-634.3" font-family="Times,serif" font-size="14.00">created_at :datetime</text>
<text text-anchor="start" x="389" y="-619.3" font-family="Times,serif" font-size="14.00">updated_at :datetime</text>
<text text-anchor="start" x="389" y="-604.3" font-family="Times,serif" font-size="14.00">provider :varchar</text>
<text text-anchor="start" x="389" y="-589.3" font-family="Times,serif" font-size="14.00">uid :varchar</text>
<text text-anchor="start" x="389" y="-574.3" font-family="Times,serif" font-size="14.00">year_id :integer</text>
<text text-anchor="start" x="389" y="-559.3" font-family="Times,serif" font-size="14.00">image :varchar</text>
</g>
<!-- Role&#45;&gt;User -->
<g id="edge1" class="edge"><title>Role&#45;&gt;User</title>
<path fill="none" stroke="#029510" d="M481,-1030.18C481,-1024.57 481,-1018.75 481,-1012.75"/>
<polygon fill="#029510" stroke="#029510" points="481,-1030.19 476.5,-1040.19 481,-1035.19 481,-1040.19 481,-1040.19 481,-1040.19 481,-1035.19 485.5,-1040.19 481,-1030.19 481,-1030.19"/>
<polygon fill="#029510" stroke="#029510" points="481,-1012.5 485.5,-1002.5 481,-1007.5 481,-1002.5 481,-1002.5 481,-1002.5 481,-1007.5 476.5,-1002.5 481,-1012.5 481,-1012.5"/>
</g>
<!-- ApplicationRecord -->
<g id="node3" class="node"><title>ApplicationRecord</title>
<ellipse fill="none" stroke="black" cx="646" cy="-1101" rx="77.1866" ry="18"/>
<text text-anchor="middle" x="646" y="-1097.3" font-family="Times,serif" font-size="14.00">ApplicationRecord</text>
</g>
<!-- Year -->
<g id="node4" class="node"><title>Year</title>
<path fill="none" stroke="black" d="M244.5,-1055.5C244.5,-1055.5 351.5,-1055.5 351.5,-1055.5 357.5,-1055.5 363.5,-1061.5 363.5,-1067.5 363.5,-1067.5 363.5,-1134.5 363.5,-1134.5 363.5,-1140.5 357.5,-1146.5 351.5,-1146.5 351.5,-1146.5 244.5,-1146.5 244.5,-1146.5 238.5,-1146.5 232.5,-1140.5 232.5,-1134.5 232.5,-1134.5 232.5,-1067.5 232.5,-1067.5 232.5,-1061.5 238.5,-1055.5 244.5,-1055.5"/>
<text text-anchor="middle" x="298" y="-1131.3" font-family="Times,serif" font-size="14.00">Year</text>
<polyline fill="none" stroke="black" points="232.5,-1123.5 363.5,-1123.5 "/>
<text text-anchor="start" x="240.5" y="-1108.3" font-family="Times,serif" font-size="14.00">id :INTEGER</text>
<text text-anchor="start" x="240.5" y="-1093.3" font-family="Times,serif" font-size="14.00">year :integer</text>
<text text-anchor="start" x="240.5" y="-1078.3" font-family="Times,serif" font-size="14.00">created_at :datetime</text>
<text text-anchor="start" x="240.5" y="-1063.3" font-family="Times,serif" font-size="14.00">updated_at :datetime</text>
</g>
<!-- Event -->
<g id="node6" class="node"><title>Event</title>
<path fill="none" stroke="black" d="M254.5,-174.5C254.5,-174.5 361.5,-174.5 361.5,-174.5 367.5,-174.5 373.5,-180.5 373.5,-186.5 373.5,-186.5 373.5,-298.5 373.5,-298.5 373.5,-304.5 367.5,-310.5 361.5,-310.5 361.5,-310.5 254.5,-310.5 254.5,-310.5 248.5,-310.5 242.5,-304.5 242.5,-298.5 242.5,-298.5 242.5,-186.5 242.5,-186.5 242.5,-180.5 248.5,-174.5 254.5,-174.5"/>
<text text-anchor="middle" x="308" y="-295.3" font-family="Times,serif" font-size="14.00">Event</text>
<polyline fill="none" stroke="black" points="242.5,-287.5 373.5,-287.5 "/>
<text text-anchor="start" x="250.5" y="-272.3" font-family="Times,serif" font-size="14.00">id :INTEGER</text>
<text text-anchor="start" x="250.5" y="-257.3" font-family="Times,serif" font-size="14.00">name :varchar</text>
<text text-anchor="start" x="250.5" y="-242.3" font-family="Times,serif" font-size="14.00">date :date</text>
<text text-anchor="start" x="250.5" y="-227.3" font-family="Times,serif" font-size="14.00">event_link :varchar</text>
<text text-anchor="start" x="250.5" y="-212.3" font-family="Times,serif" font-size="14.00">created_at :datetime</text>
<text text-anchor="start" x="250.5" y="-197.3" font-family="Times,serif" font-size="14.00">updated_at :datetime</text>
<text text-anchor="start" x="250.5" y="-182.3" font-family="Times,serif" font-size="14.00">year_id :integer</text>
</g>
<!-- Year&#45;&gt;Event -->
<g id="edge3" class="edge"><title>Year&#45;&gt;Event</title>
<path fill="none" stroke="#1e8595" d="M297.057,-1047.02C295.247,-942.449 291.347,-702.093 290,-500 289.55,-432.446 284.245,-415.31 290,-348 290.76,-339.11 291.878,-329.84 293.19,-320.653"/>
<ellipse fill="none" stroke="#1e8595" cx="297.129" cy="-1051.22" rx="4" ry="4"/>
<polygon fill="#1e8595" stroke="#1e8595" points="293.194,-320.627 299.133,-311.408 293.938,-315.683 294.683,-310.738 294.683,-310.738 294.683,-310.738 293.938,-315.683 290.233,-310.068 293.194,-320.627 293.194,-320.627"/>
</g>
<!-- Year&#45;&gt;User -->
<g id="edge2" class="edge"><title>Year&#45;&gt;User</title>
<path fill="none" stroke="#157717" d="M327.523,-1048.05C341.1,-1024.16 358.113,-994.228 375.825,-963.062"/>
<ellipse fill="none" stroke="#157717" cx="325.422" cy="-1051.75" rx="4.00002" ry="4.00002"/>
<polygon fill="#157717" stroke="#157717" points="375.896,-962.937 384.749,-956.466 378.367,-958.59 380.837,-954.243 380.837,-954.243 380.837,-954.243 378.367,-958.59 376.925,-952.019 375.896,-962.937 375.896,-962.937"/>
</g>
<!-- Note -->
<g id="node5" class="node"><title>Note</title>
<path fill="none" stroke="black" d="M478.5,-348.5C478.5,-348.5 597.5,-348.5 597.5,-348.5 603.5,-348.5 609.5,-354.5 609.5,-360.5 609.5,-360.5 609.5,-487.5 609.5,-487.5 609.5,-493.5 603.5,-499.5 597.5,-499.5 597.5,-499.5 478.5,-499.5 478.5,-499.5 472.5,-499.5 466.5,-493.5 466.5,-487.5 466.5,-487.5 466.5,-360.5 466.5,-360.5 466.5,-354.5 472.5,-348.5 478.5,-348.5"/>
<text text-anchor="middle" x="538" y="-484.3" font-family="Times,serif" font-size="14.00">Note</text>
<polyline fill="none" stroke="black" points="466.5,-476.5 609.5,-476.5 "/>
<text text-anchor="start" x="474.5" y="-461.3" font-family="Times,serif" font-size="14.00">id :INTEGER</text>
<text text-anchor="start" x="474.5" y="-446.3" font-family="Times,serif" font-size="14.00">points :integer</text>
<text text-anchor="start" x="474.5" y="-431.3" font-family="Times,serif" font-size="14.00">description :varchar</text>
<text text-anchor="start" x="474.5" y="-416.3" font-family="Times,serif" font-size="14.00">from_id :integer</text>
<text text-anchor="start" x="474.5" y="-401.3" font-family="Times,serif" font-size="14.00">to_id :integer</text>
<text text-anchor="start" x="474.5" y="-386.3" font-family="Times,serif" font-size="14.00">points_hidden :boolean</text>
<text text-anchor="start" x="474.5" y="-371.3" font-family="Times,serif" font-size="14.00">created_at :datetime</text>
<text text-anchor="start" x="474.5" y="-356.3" font-family="Times,serif" font-size="14.00">updated_at :datetime</text>
</g>
<!-- Participation -->
<g id="node10" class="node"><title>Participation</title>
<path fill="none" stroke="black" d="M334,-0.5C334,-0.5 470,-0.5 470,-0.5 476,-0.5 482,-6.5 482,-12.5 482,-12.5 482,-124.5 482,-124.5 482,-130.5 476,-136.5 470,-136.5 470,-136.5 334,-136.5 334,-136.5 328,-136.5 322,-130.5 322,-124.5 322,-124.5 322,-12.5 322,-12.5 322,-6.5 328,-0.5 334,-0.5"/>
<text text-anchor="middle" x="402" y="-121.3" font-family="Times,serif" font-size="14.00">Participation</text>
<polyline fill="none" stroke="black" points="322,-113.5 482,-113.5 "/>
<text text-anchor="start" x="330" y="-98.3" font-family="Times,serif" font-size="14.00">id :INTEGER</text>
<text text-anchor="start" x="330" y="-83.3" font-family="Times,serif" font-size="14.00">points :integer</text>
<text text-anchor="start" x="330" y="-68.3" font-family="Times,serif" font-size="14.00">created_at :datetime</text>
<text text-anchor="start" x="330" y="-53.3" font-family="Times,serif" font-size="14.00">updated_at :datetime</text>
<text text-anchor="start" x="330" y="-38.3" font-family="Times,serif" font-size="14.00">event_id :integer</text>
<text text-anchor="start" x="330" y="-23.3" font-family="Times,serif" font-size="14.00">description :varchar</text>
<text text-anchor="start" x="330" y="-8.3" font-family="Times,serif" font-size="14.00">participation_type :integer</text>
</g>
<!-- Event&#45;&gt;Participation -->
<g id="edge4" class="edge"><title>Event&#45;&gt;Participation</title>
<path fill="none" stroke="#30cf3e" d="M348.858,-166.738C352.722,-159.668 356.643,-152.494 360.512,-145.413"/>
<ellipse fill="none" stroke="#30cf3e" cx="346.8" cy="-170.505" rx="4.00002" ry="4.00002"/>
<polygon fill="#30cf3e" stroke="#30cf3e" points="360.583,-145.284 369.328,-138.667 362.981,-140.896 365.379,-136.509 365.379,-136.509 365.379,-136.509 362.981,-140.896 361.43,-134.35 360.583,-145.284 360.583,-145.284"/>
</g>
<!-- User&#45;&gt;Note -->
<g id="edge8" class="edge"><title>User&#45;&gt;Note</title>
<path fill="none" stroke="#0514c6" d="M518.811,-543.166C520.694,-531.572 522.515,-520.352 524.238,-509.744"/>
<ellipse fill="none" stroke="#0514c6" cx="518.143" cy="-547.275" rx="4.00001" ry="4.00001"/>
<polygon fill="#0514c6" stroke="#0514c6" points="524.255,-509.638 530.3,-500.488 525.057,-504.702 525.858,-499.767 525.858,-499.767 525.858,-499.767 525.057,-504.702 521.417,-499.046 524.255,-509.638 524.255,-509.638"/>
</g>
<!-- User&#45;&gt;Note -->
<g id="edge9" class="edge"><title>User&#45;&gt;Note</title>
<path fill="none" stroke="#bfab5a" d="M520.371,-543.235C520.92,-539.8 521.463,-536.387 522,-533 523.199,-525.431 524.418,-517.559 525.622,-509.669"/>
<ellipse fill="none" stroke="#bfab5a" cx="519.714" cy="-547.335" rx="4.00001" ry="4.00001"/>
<polygon fill="#bfab5a" stroke="#bfab5a" points="525.636,-509.573 531.584,-500.36 526.386,-504.629 527.135,-499.686 527.135,-499.686 527.135,-499.686 526.386,-504.629 522.686,-499.011 525.636,-509.573 525.636,-509.573"/>
<text text-anchor="middle" x="569" y="-521.8" font-family="Times,serif" font-size="14.00">submitted_notes</text>
</g>
<!-- ParticipationRequest -->
<g id="node9" class="node"><title>ParticipationRequest</title>
<path fill="none" stroke="black" d="M310.5,-348.5C310.5,-348.5 433.5,-348.5 433.5,-348.5 439.5,-348.5 445.5,-354.5 445.5,-360.5 445.5,-360.5 445.5,-487.5 445.5,-487.5 445.5,-493.5 439.5,-499.5 433.5,-499.5 433.5,-499.5 310.5,-499.5 310.5,-499.5 304.5,-499.5 298.5,-493.5 298.5,-487.5 298.5,-487.5 298.5,-360.5 298.5,-360.5 298.5,-354.5 304.5,-348.5 310.5,-348.5"/>
<text text-anchor="middle" x="372" y="-484.3" font-family="Times,serif" font-size="14.00">ParticipationRequest</text>
<polyline fill="none" stroke="black" points="298.5,-476.5 445.5,-476.5 "/>
<text text-anchor="start" x="306.5" y="-461.3" font-family="Times,serif" font-size="14.00">id :INTEGER</text>
<text text-anchor="start" x="306.5" y="-446.3" font-family="Times,serif" font-size="14.00">acceptor_id :integer</text>
<text text-anchor="start" x="306.5" y="-431.3" font-family="Times,serif" font-size="14.00">participant_id :integer</text>
<text text-anchor="start" x="306.5" y="-416.3" font-family="Times,serif" font-size="14.00">description :varchar</text>
<text text-anchor="start" x="306.5" y="-401.3" font-family="Times,serif" font-size="14.00">participation_id :integer</text>
<text text-anchor="start" x="306.5" y="-386.3" font-family="Times,serif" font-size="14.00">accepted :boolean</text>
<text text-anchor="start" x="306.5" y="-371.3" font-family="Times,serif" font-size="14.00">created_at :datetime</text>
<text text-anchor="start" x="306.5" y="-356.3" font-family="Times,serif" font-size="14.00">updated_at :datetime</text>
</g>
<!-- User&#45;&gt;ParticipationRequest -->
<g id="edge5" class="edge"><title>User&#45;&gt;ParticipationRequest</title>
<path fill="none" stroke="#b255d0" d="M377.435,-610.782C365.734,-585.533 355.644,-559.152 349,-533 347.075,-525.423 346.347,-517.519 346.483,-509.585"/>
<ellipse fill="none" stroke="#b255d0" cx="379.239" cy="-614.607" rx="4.00002" ry="4.00002"/>
<polygon fill="#b255d0" stroke="#b255d0" points="346.487,-509.523 351.585,-499.814 346.79,-504.532 347.093,-499.541 347.093,-499.541 347.093,-499.541 346.79,-504.532 342.601,-499.268 346.487,-509.523 346.487,-509.523"/>
</g>
<!-- User&#45;&gt;ParticipationRequest -->
<g id="edge6" class="edge"><title>User&#45;&gt;ParticipationRequest</title>
<path fill="none" stroke="#d36475" d="M391.901,-543.642C390.903,-540.078 389.935,-536.529 389,-533 387.017,-525.518 385.235,-517.678 383.639,-509.786"/>
<ellipse fill="none" stroke="#d36475" cx="393.035" cy="-547.62" rx="4.00001" ry="4.00001"/>
<polygon fill="#d36475" stroke="#d36475" points="383.604,-509.604 386.136,-498.934 382.661,-504.693 381.717,-499.783 381.717,-499.783 381.717,-499.783 382.661,-504.693 377.298,-500.632 383.604,-509.604 383.604,-509.604"/>
<text text-anchor="middle" x="453" y="-521.8" font-family="Times,serif" font-size="14.00">accepted_participations</text>
</g>
<!-- User&#45;&gt;Participation -->
<g id="edge7" class="edge"><title>User&#45;&gt;Participation</title>
<path fill="none" stroke="#c1f82f" d="M585.548,-615.37C598.714,-588.76 610.26,-560.768 618,-533 629.411,-492.059 655.979,-455.623 619,-348 591.995,-269.405 532.727,-195.943 482.946,-144.222"/>
<polygon fill="#c1f82f" stroke="#c1f82f" points="585.528,-615.411 577.007,-622.313 583.277,-619.875 581.025,-624.34 581.025,-624.34 581.025,-624.34 583.277,-619.875 585.043,-626.366 585.528,-615.411 585.528,-615.411"/>
<polygon fill="#c1f82f" stroke="#c1f82f" points="482.649,-143.917 478.899,-133.612 479.162,-140.334 475.675,-136.751 475.675,-136.751 475.675,-136.751 479.162,-140.334 472.45,-139.889 482.649,-143.917 482.649,-143.917"/>
</g>
<!-- Ability -->
<g id="node8" class="node"><title>Ability</title>
<polygon fill="none" stroke="black" points="741.5,-1078 741.5,-1124 796.5,-1124 796.5,-1078 741.5,-1078"/>
<text text-anchor="middle" x="769" y="-1108.8" font-family="Times,serif" font-size="14.00">Ability</text>
<polyline fill="none" stroke="black" points="741.5,-1101 796.5,-1101 "/>
<text text-anchor="middle" x="769" y="-1085.8" font-family="Times,serif" font-size="14.00"> </text>
</g>
<!-- ParticipationRequest&#45;&gt;Event -->
<g id="edge10" class="edge"><title>ParticipationRequest&#45;&gt;Event</title>
<path fill="none" stroke="#dd37e3" d="M342.679,-340.763C340.04,-333.363 337.377,-325.894 334.762,-318.56"/>
<ellipse fill="none" stroke="#dd37e3" cx="344.071" cy="-344.668" rx="4.00001" ry="4.00001"/>
<ellipse fill="#dd37e3" stroke="#dd37e3" cx="333.291" cy="-314.432" rx="4.00001" ry="4.00001"/>
</g>
<!-- Participation&#45;&gt;ParticipationRequest -->
<g id="edge11" class="edge"><title>Participation&#45;&gt;ParticipationRequest</title>
<path fill="none" stroke="#25b1b9" d="M396.454,-144.789C392.85,-192.449 387.921,-255.359 383,-311 382.216,-319.861 381.363,-329.113 380.491,-338.337"/>
<ellipse fill="none" stroke="#25b1b9" cx="396.765" cy="-140.663" rx="4" ry="4"/>
<polygon fill="#25b1b9" stroke="#25b1b9" points="380.489,-338.36 375.059,-347.887 380.014,-343.337 379.538,-348.315 379.538,-348.315 379.538,-348.315 380.014,-343.337 384.018,-348.742 380.489,-338.36 380.489,-338.36"/>
</g>
</g>
</svg>
